<?xml version="1.0" standalone="no"?>
<!DOCTYPE svg PUBLIC "-//W3C//DTD SVG 20010904//EN"
 "http://www.w3.org/TR/2001/REC-SVG-20010904/DTD/svg10.dtd">
<svg version="1.0" xmlns="http://www.w3.org/2000/svg"
 width="64.000000pt" height="64.000000pt" viewBox="0 0 64.000000 64.000000"
 preserveAspectRatio="xMidYMid meet">

<g transform="translate(0.000000,64.000000) scale(0.100000,-0.100000)"
fill="#000000" stroke="none">
<path d="M25 615 l-25 -24 0 -276 c0 -264 1 -276 20 -295 20 -20 30 -21 305
-18 216 2 287 6 297 16 10 10 14 80 16 292 l3 280 -25 25 -25 25 -271 0 -271
0 -24 -25z m583 -7 c9 -9 12 -86 12 -284 0 -234 -2 -275 -16 -288 -13 -14 -47
-16 -217 -16 l-202 0 -80 44 -80 44 -3 242 c-2 171 1 247 9 256 16 19 558 21
577 2z"/>
<path d="M306 560 c-35 -11 -73 -45 -93 -84 -12 -22 -14 -47 -10 -96 l6 -66
-55 -43 c-54 -43 -62 -57 -45 -89 5 -9 12 -25 15 -35 11 -35 35 -30 99 22 34
28 65 51 69 51 5 0 8 -25 8 -57 0 -74 25 -133 57 -133 31 0 42 30 36 101 l-4
56 50 31 c90 56 114 145 63 236 -48 87 -124 128 -196 106z m37 -42 c86 6 141
-64 114 -146 -23 -69 -118 -103 -195 -68 -50 22 -67 104 -33 166 17 33 63 68
69 52 1 -4 21 -6 45 -4z m-103 -226 c0 -7 -38 -40 -103 -91 -9 -8 -21 -10 -25
-6 -4 4 18 29 48 56 51 45 80 60 80 41z m100 -116 c0 -41 -4 -78 -10 -81 -6
-4 -10 23 -10 74 0 47 4 81 10 81 6 0 10 -31 10 -74z"/>
<path d="M317 452 c-26 -28 -21 -69 9 -89 24 -15 29 -15 53 -2 16 9 27 25 29
43 7 55 -56 87 -91 48z"/>
</g>
</svg>
